<svg id="Capa_1" enable-background="new 0 0 512 512" height="512" viewBox="0 0 512 512" width="512" xmlns="http://www.w3.org/2000/svg"><g><path d="m172.373 216.258v-1.167h84.412v34.114h-1.167c-5.522 0-10 4.478-10 10v49.565c0 5.522 4.478 10 10 10h155.774c5.522 0 10-4.478 10-10v-49.565c0-5.523-4.478-10-10-10h-1.168v-145.587h1.168c5.522 0 10-4.478 10-10v-49.566c0-5.522-4.478-10-10-10h-155.774c-5.522 0-10 4.478-10 10v49.566c0 5.522 4.478 10 10 10h1.167v34.114h-84.412v-1.168c0-5.522-4.478-10-10-10h-141.619c-11.443 0-20.754 9.311-20.754 20.755v58.185c0 11.443 9.311 20.754 20.754 20.754h141.619c5.522 0 10-4.478 10-10zm229.02 82.513h-135.775v-29.565h135.774v29.565zm-135.775-244.719h135.774v29.566h-135.774zm124.607 49.566v145.587h-113.44v-145.587zm-133.44 54.114v37.358h-84.412v-37.358zm-104.412 48.526h-131.619c-.416 0-.754-.338-.754-.754v-58.185c0-.416.338-.755.754-.755h131.619z"/><path d="m502 457.948h-31.048v-27.138c0-12.416-8.59-22.863-20.139-25.711v-23.704c0-16.917-13.764-30.681-30.681-30.681h-174.361c-16.918 0-30.682 13.764-30.682 30.681v23.704c-11.548 2.848-20.138 13.295-20.138 25.711v27.139h-31.049c-5.522 0-10 4.478-10 10s4.478 10 10 10h338.098c5.522 0 10-4.478 10-10 0-5.523-4.478-10.001-10-10.001zm-266.91-76.553c0-5.89 4.792-10.681 10.682-10.681h174.361c5.89 0 10.681 4.791 10.681 10.681v22.937h-195.724zm-20.138 76.553v-27.138c0-3.572 2.906-6.479 6.479-6.479h223.042c3.573 0 6.479 2.906 6.479 6.479v27.139h-236z"/></g></svg>