<svg id="Layer_1" enable-background="new 0 0 512 512" height="512" viewBox="0 0 512 512" width="512" xmlns="http://www.w3.org/2000/svg"><g><g><path d="m255.173 254.005c12.97 0 23.521-10.552 23.521-23.522s-10.552-23.521-23.521-23.521-23.521 10.552-23.521 23.521c-.001 12.97 10.551 23.522 23.521 23.522zm0-32.044c4.699 0 8.521 3.822 8.521 8.521s-3.822 8.522-8.521 8.522-8.521-3.823-8.521-8.522 3.822-8.521 8.521-8.521z"/><path d="m191.728 230.988c-4.143 0-7.5 3.357-7.5 7.5s3.357 7.5 7.5 7.5h7c1.376 11.07 5.75 21.216 12.289 29.605l-4.969 4.969c-2.929 2.929-2.929 7.678.001 10.606 1.464 1.464 3.384 2.196 5.303 2.196s3.839-.732 5.304-2.197l4.968-4.969c8.389 6.539 18.535 10.912 29.604 12.289v7c0 4.143 3.357 7.5 7.5 7.5s7.5-3.357 7.5-7.5v-7c11.069-1.376 21.214-5.75 29.603-12.288l4.969 4.969c1.465 1.464 3.385 2.196 5.304 2.196s3.839-.732 5.304-2.196c2.929-2.93 2.929-7.678 0-10.607l-4.969-4.969c6.539-8.389 10.913-18.535 12.289-29.604h7c4.143 0 7.5-3.357 7.5-7.5s-3.357-7.5-7.5-7.5h-7c-1.376-11.069-5.75-21.215-12.289-29.604l4.969-4.969c2.929-2.93 2.929-7.678 0-10.607-2.93-2.928-7.678-2.928-10.607 0l-4.969 4.969c-8.389-6.538-18.534-10.912-29.603-12.288v-7.001c0-4.143-3.357-7.5-7.5-7.5s-7.5 3.357-7.5 7.5v7.001c-11.069 1.376-21.215 5.75-29.604 12.289l-4.968-4.969c-2.929-2.93-7.678-2.929-10.606-.001-2.93 2.929-2.93 7.678-.001 10.606l4.969 4.969c-6.539 8.389-10.913 18.535-12.289 29.604h-7.002zm67-37.98c25.078 0 45.481 20.402 45.481 45.48s-20.403 45.481-45.481 45.481-45.481-20.403-45.481-45.481 20.402-45.48 45.481-45.48z"/><path d="m382.075 174.834c-4.043.902-6.589 4.911-5.686 8.953 2.319 10.394 3.496 21.111 3.496 31.855 0 75.627-56.713 138.177-131.919 145.495-3.843.374-6.773 3.604-6.773 7.465v15.372c0 4.143 3.357 7.5 7.5 7.5s7.5-3.357 7.5-7.5v-8.712c37.011-5.195 71.077-23.155 96.534-51.037 27.187-29.775 42.158-68.338 42.158-108.583 0-11.842-1.298-23.659-3.856-35.123-.903-4.042-4.914-6.59-8.954-5.685z"/><path d="m433 0h-43.149c-12.406 0-22.5 10.094-22.5 22.5 0 9.13 5.467 17.008 13.298 20.531l-46.575 46.576c-28.485-22.722-63.858-35.158-100.38-35.158-33.027 0-63.761 9.99-89.352 27.098-1.164-4.287-3.023-8.29-5.459-11.874l2.119-2.119c2.929-2.93 2.929-7.678 0-10.607-2.93-2.928-7.678-2.928-10.607 0l-2.119 2.119c-4.381-2.978-9.388-5.096-14.776-6.13v-2.987c0-4.143-3.357-7.5-7.5-7.5s-7.5 3.357-7.5 7.5v2.987c-5.388 1.034-10.394 3.152-14.776 6.13l-2.119-2.119c-2.93-2.928-7.678-2.928-10.607 0-2.929 2.93-2.929 7.678 0 10.607l2.119 2.119c-2.978 4.381-5.096 9.388-6.13 14.776h-2.987c-4.143 0-7.5 3.357-7.5 7.5s3.357 7.5 7.5 7.5h2.987c1.034 5.388 3.152 10.394 6.13 14.776l-2.119 2.119c-2.929 2.93-2.929 7.678 0 10.607 1.465 1.464 3.385 2.196 5.304 2.196s3.839-.732 5.304-2.196l2.119-2.119c3.922 2.666 8.347 4.639 13.096 5.767-15.404 24.702-24.32 53.849-24.32 85.043 0 40.245 14.972 78.808 42.158 108.583 25.458 27.882 59.524 45.842 96.535 51.037v51.671h-9.349c-12.406 0-22.5 10.094-22.5 22.5s10.094 22.5 22.5 22.5h9.349v17.567c0 12.406 10.094 22.5 22.5 22.5s22.5-10.094 22.5-22.5v-17.566h9.348c12.406 0 22.5-10.094 22.5-22.5s-10.094-22.5-22.5-22.5h-9.348v-10.651c0-4.143-3.357-7.5-7.5-7.5s-7.5 3.357-7.5 7.5v18.151c0 4.143 3.357 7.5 7.5 7.5h16.848c4.136 0 7.5 3.364 7.5 7.5s-3.364 7.5-7.5 7.5h-16.848c-4.143 0-7.5 3.357-7.5 7.5v25.066c0 4.136-3.364 7.5-7.5 7.5s-7.5-3.364-7.5-7.5v-25.066c0-4.143-3.357-7.5-7.5-7.5h-16.849c-4.136 0-7.5-3.364-7.5-7.5s3.364-7.5 7.5-7.5h16.849c4.143 0 7.5-3.357 7.5-7.5v-65.831c0-3.86-2.931-7.091-6.773-7.465-75.208-7.319-131.921-69.868-131.921-145.495 0-80.611 65.582-146.193 146.193-146.193 35.237 0 69.3 12.771 95.913 35.959 2.971 2.59 7.441 2.438 10.23-.351l62.254-62.254c2.145-2.146 2.786-5.371 1.625-8.174-1.16-2.803-3.896-4.63-6.929-4.63h-6.937c-4.136 0-7.5-3.364-7.5-7.5s3.364-7.5 7.5-7.5h43.151c4.136 0 7.5 3.364 7.5 7.5v43.148c0 4.136-3.364 7.5-7.5 7.5s-7.5-3.364-7.5-7.5v-6.936c0-3.033-1.827-5.769-4.63-6.929-2.803-1.162-6.028-.52-8.174 1.625l-62.855 62.855c-2.672 2.673-2.938 6.917-.621 9.902 6.919 8.912 12.798 18.609 17.477 28.821 1.727 3.765 6.176 5.42 9.942 3.694 3.766-1.725 5.42-6.176 3.694-9.942-4.24-9.257-9.375-18.128-15.305-26.449l47.44-47.44c3.524 7.832 11.401 13.298 20.531 13.298 12.406 0 22.5-10.094 22.5-22.5v-43.147c.001-12.406-10.093-22.5-22.499-22.5zm-326.444 116.664c-.186.004-.369.018-.556.018-13.638 0-24.732-11.095-24.732-24.732s11.094-24.733 24.732-24.733c13.561 0 24.602 10.971 24.727 24.503-8.92 7.424-17.028 15.789-24.171 24.944z"/><path d="m143.7 289.06c-2.62-3.205-7.345-3.681-10.554-1.06-3.207 2.621-3.682 7.347-1.06 10.554 25.083 30.684 62.117 48.282 101.606 48.282 72.34 0 131.192-58.854 131.192-131.193s-58.851-131.194-131.191-131.194-131.193 58.854-131.193 131.194c0 18.872 3.941 37.102 11.715 54.18 1.716 3.77 6.163 5.437 9.933 3.72 3.771-1.716 5.436-6.163 3.72-9.933-6.879-15.115-10.367-31.253-10.367-47.967 0-64.069 52.124-116.193 116.193-116.193 64.068 0 116.192 52.124 116.192 116.193s-52.124 116.193-116.192 116.193c-34.97 0-67.771-15.591-89.994-42.776z"/></g></g></svg>