<?xml version="1.0"?>
<svg xmlns="http://www.w3.org/2000/svg" viewBox="0 0 64 64" width="512" height="512"><g id="Side_effects" data-name="Side effects"><path d="M40,14h4a1,1,0,0,0,1-1,1,1,0,0,1,.377-.782,1.02,1.02,0,0,1,.919-.181.959.959,0,0,1,.679.725,1.012,1.012,0,0,1-.464,1.1A7.074,7.074,0,0,0,43,20a3,3,0,1,0,6-.077,1.1,1.1,0,0,1,.592-.913A7.076,7.076,0,0,0,52.553,10.5a6.859,6.859,0,0,0-4.334-4.148,7.093,7.093,0,0,0-6.582,1.177A6.968,6.968,0,0,0,39,13,1,1,0,0,0,40,14Zm2.885-4.911a5.08,5.08,0,0,1,4.727-.835,4.849,4.849,0,0,1,3.063,2.932,5.07,5.07,0,0,1-2.11,6.107A3.109,3.109,0,0,0,47,20a1,1,0,0,1-1,1,1.02,1.02,0,0,1-1-1.077,5.06,5.06,0,0,1,2.537-4.346,3,3,0,0,0,1.4-3.211A2.945,2.945,0,0,0,46.781,10.1a3.254,3.254,0,0,0-.789-.1,3.011,3.011,0,0,0-2.822,2H41.1A4.97,4.97,0,0,1,42.885,9.089Z"/><path d="M46,24a3,3,0,1,0,3,3A3,3,0,0,0,46,24Zm0,4a1,1,0,1,1,1-1A1,1,0,0,1,46,28Z"/><path d="M33.35,31.94l3.05-1.15A15.993,15.993,0,1,0,30,18a15.81,15.81,0,0,0,2.85,9.08l-.83,3.7a1.083,1.083,0,0,0,.01.44l-8.75-8.75a3.075,3.075,0,0,0-4.24,0l-.71.71L15.5,20.35l2.83-2.83a2.994,2.994,0,0,0,0-4.24,3.056,3.056,0,0,0-4.24,0L2.78,24.59a3,3,0,0,0,0,4.24,2.994,2.994,0,0,0,4.24,0L9.85,26l2.83,2.83-.71.71a3,3,0,0,0,0,4.24L31.06,52.87a2.994,2.994,0,0,0,4.24,0l.71-.7.71.7a2.994,2.994,0,0,0,4.24,0l9.19,9.2,1.42-1.42-9.19-9.19a3.009,3.009,0,0,0-.01-4.24l-.7-.71.7-.71h.01a3.009,3.009,0,0,0-.01-4.24l-9.58-9.59A.975.975,0,0,0,33.35,31.94ZM5.61,27.42A1,1,0,0,1,4.19,26L15.5,14.69a1,1,0,0,1,1.71.71.951.951,0,0,1-.29.7Zm5.65-2.83,2.83-2.83,2.83,2.83-2.83,2.83Zm29.7,25.46-1.41,1.41a1.027,1.027,0,0,1-1.42,0l-.71-.71,2.83-2.83.71.71A1.008,1.008,0,0,1,40.96,50.05Zm0-7.08a1.008,1.008,0,0,1,0,1.42l-7.07,7.07a1.008,1.008,0,0,1-1.42,0L13.38,32.37a1.008,1.008,0,0,1,0-1.42l7.07-7.07a1.014,1.014,0,0,1,1.42,0ZM32,18A14,14,0,1,1,46,32a13.838,13.838,0,0,1-8.8-3.12,1.026,1.026,0,0,0-.63-.22,1.073,1.073,0,0,0-.35.06l-1.84.7.52-2.34a.982.982,0,0,0-.18-.81A13.868,13.868,0,0,1,32,18Z"/></g></svg>
