<svg id="Capa_1" enable-background="new 0 0 512 512" height="512" viewBox="0 0 512 512" width="512" xmlns="http://www.w3.org/2000/svg"><g><path d="m326 70c0-38.598-31.402-70-70-70s-70 31.402-70 70 31.402 70 70 70 70-31.402 70-70zm-70 50c-27.57 0-50-22.43-50-50s22.43-50 50-50 50 22.43 50 50-22.43 50-50 50z"/><path d="m118 280c18.333 0 37.592-3.223 53.783-8.825 4.574 23.973 9.192 48.542 11.859 71.701-44.84 1.39-75.346 4.611-98.006 10.297-32.936 8.264-49.636 23.01-49.636 43.827 0 24.37 24.062 52.591 64.366 75.491 4.841 2.751 10.929 1.007 13.634-3.754 2.729-4.802 1.048-10.906-3.754-13.634-37.473-21.292-54.246-44.524-54.246-58.103 0-27.931 79.285-33.023 138.923-34.423 19.316 9.029 40.195 13.555 61.077 13.555s41.761-4.526 61.077-13.555c59.638 1.4 138.923 6.492 138.923 34.423 0 33.556-68.569 67.891-101.345 78.917-2.871-13.54-10.285-25.705-21.325-34.499-3.184-2.536-6.583-4.713-10.13-6.562 16.634-6.788 32.71-12.856 52.8-12.856 5.523 0 10-4.477 10-10s-4.477-10-10-10c-25.401 0-44.921 8.006-63.798 15.748-11.353 4.656-22.077 9.054-33.939 11.727-.046.01-.092.021-.138.032-5.792 1.387-14.192 2.493-22.125 2.493-21.459 0-38.336-6.923-56.205-14.252-18.876-7.742-38.394-15.748-63.795-15.748-5.523 0-10 4.477-10 10s4.477 10 10 10c21.459 0 38.336 6.923 56.205 14.252 18.876 7.742 38.394 15.748 63.795 15.748 9.82 0 19.916-1.385 27.196-3.133 13.513-3.1 27.243-.113 37.673 8.195 7.916 6.306 12.946 14.876 14.562 24.607-25.913 6.85-52.592 10.331-79.431 10.331-21.591 0-43.31-2.281-64.554-6.78-5.405-1.145-10.71 2.309-11.855 7.711-1.144 5.403 2.309 10.711 7.711 11.855 22.604 4.787 45.717 7.214 68.698 7.214 120.151 0 220-66.256 220-115 0-49.427-94.872-52.489-147.64-54.124 2.669-23.155 7.281-47.709 11.851-71.67 16.201 5.643 35.185 8.794 53.789 8.794 53.344 0 115.151-29.903 117.985-81.451.19-3.46-1.424-6.772-4.268-8.753-2.843-1.981-6.508-2.35-9.689-.973-16.172 6.999-38.238 11.177-59.028 11.177-57.264 0-86.947-29.274-90.249-30.706-26.526-18.969-58.738-29.294-92.041-29.294h-1.42c-10.436 0-20.907 1.024-31.122 3.04-27.922 5.19-59.359 23.064-64.433 28.826-25.607 19.379-55.07 28.134-86.735 28.134-20.79 0-42.856-4.178-59.028-11.177-3.18-1.376-6.846-1.008-9.689.973s-4.458 5.293-4.268 8.753c2.842 51.697 64.877 81.451 117.985 81.451zm85.965 64.724c-5.549-52.362-20.967-109.634-26.21-161.161 11.636-7.864 24.618-13.951 38.245-17.945v14.382c0 22.056 17.944 40 40 40s40-17.944 40-40v-14.383c13.618 3.992 26.597 10.077 38.246 17.948-5.169 51.056-20.645 108.717-26.211 161.158-32.954 15.2-71.115 15.201-104.07.001zm235.035-124.724c16.41 0 33.633-2.36 48.859-6.543-12.457 26.45-50.919 46.543-93.859 46.543-17.289 0-35.435-3.205-50.012-8.706 3.454-18.442 6.642-36.583 8.873-54.412 23.365 14.612 54.603 23.118 86.139 23.118zm-182.29-60c6.445 0 12.904.455 19.29 1.337v18.663c0 11.028-8.972 20-20 20s-20-8.972-20-20v-18.663c6.386-.882 12.844-1.337 19.29-1.337zm-183.71 60c31.541 0 62.783-8.509 86.148-23.122 2.265 18.03 5.511 36.497 8.862 54.406-14.577 5.509-32.689 8.716-50.01 8.716-42.94 0-81.402-20.093-93.859-46.543 15.226 4.183 32.449 6.543 48.859 6.543z"/><circle cx="146" cy="483" r="10"/></g></svg>