<svg xmlns="http://www.w3.org/2000/svg" data-name="Layer 1" viewBox="0 0 512 512"><path d="M403.81055,352.25391l-51.55567,51.55664A34.30556,34.30556,0,0,0,400.77,452.32617l51.55566-51.55664a34.30555,34.30555,0,1,0-48.51513-48.51562Zm-13.647,89.46484A19.30508,19.30508,0,1,1,362.86133,414.418l20.47467-20.4751,27.30188,27.30151Zm51.55567-51.55566-20.47443,20.47436-27.30194-27.30151L414.417,362.86133a19.30543,19.30543,0,1,1,27.30225,27.30176ZM210.5,155a7.50006,7.50006,0,0,0,7.5-7.5v-22a7.5,7.5,0,0,0-15,0v22A7.50006,7.50006,0,0,0,210.5,155ZM412.71362,293.07837A206.78009,206.78009,0,0,0,415,262.5a203.2709,203.2709,0,0,0-19.61285-87.332A75.40871,75.40871,0,0,0,409.6059,78.68164l8.76226-7.47607a7.50017,7.50017,0,0,0-9.73632-11.41114l-8.19709,6.9939a75.416,75.416,0,0,0-114.68353,5.55859A203.20045,203.20045,0,0,0,218,58.15186V15h19.5a7.5,7.5,0,0,0,0-15h-54a7.5,7.5,0,0,0,0,15H203V58.15186a203.201,203.201,0,0,0-67.75134,14.19519A75.41579,75.41579,0,0,0,20.56519,66.78833l-8.197-6.9939A7.50017,7.50017,0,0,0,2.63184,71.20557l8.7622,7.47607A75.02961,75.02961,0,0,0,0,118.5a75.91631,75.91631,0,0,0,25.61572,56.66187A203.27078,203.27078,0,0,0,6,262.5c0,86.502,53.988,160.6272,130.03662,190.46265L101.563,500.07031a7.50012,7.50012,0,1,0,12.10449,8.85938l37.18457-50.812a204.54571,204.54571,0,0,0,119.2865-.01294l37.194,50.825a7.50012,7.50012,0,1,0,12.10449-8.85938l-34.45874-47.0874q8.43072-3.28839,16.54334-7.33154a109.706,109.706,0,1,0,111.192-152.573ZM345.5,58a60.49282,60.49282,0,0,1,42.68762,103.36194,205.91132,205.91132,0,0,0-88.20679-82.71716A60.28966,60.28966,0,0,1,345.5,58ZM15,118.5A60.501,60.501,0,0,1,121.0188,78.645,205.91,205.91,0,0,0,32.81348,161.36,59.89453,59.89453,0,0,1,15,118.5ZM210.5,452C106.00928,452,21,366.99023,21,262.5,21,158.00928,106.00928,73,210.5,73S400,158.00928,400,262.5a191.59931,191.59931,0,0,1-2.39783,30.18689,109.56522,109.56522,0,0,0-15.54107,1.77A175.13037,175.13037,0,0,0,385,262.5C385,166.28027,306.71973,88,210.5,88S36,166.28027,36,262.5,114.28027,437,210.5,437a173.85529,173.85529,0,0,0,82.93359-21.0188,108.87562,108.87562,0,0,0,3.07349,15.4148A189.854,189.854,0,0,1,210.5,452Zm82.128-52.84216A158.82747,158.82747,0,0,1,210.5,422C122.55127,422,51,350.44824,51,262.5,51,174.55127,122.55127,103,210.5,103S370,174.55127,370,262.5a159.72133,159.72133,0,0,1-4.19055,36.32373A109.91525,109.91525,0,0,0,292.628,399.15784ZM402.29,497A94.71,94.71,0,1,1,497,402.29,94.81662,94.81662,0,0,1,402.29,497ZM267.37256,253H231.71a22.49681,22.49681,0,0,0-28.88574-13.65039L156.294,182.73779a7.4999,7.4999,0,0,0-11.5879,9.52442l46.53443,56.61694A22.49579,22.49579,0,1,0,231.71,268h35.6626a7.5,7.5,0,0,0,0-15ZM210.5,268a7.5,7.5,0,1,1,7.5-7.5A7.5082,7.5082,0,0,1,210.5,268Zm137,2a7.5,7.5,0,0,0,0-15h-22a7.5,7.5,0,0,0,0,15Zm-137,100a7.49974,7.49974,0,0,0-7.5,7.5v22a7.5,7.5,0,0,0,15,0v-22A7.49974,7.49974,0,0,0,210.5,370ZM95.5,255h-22a7.5,7.5,0,0,0,0,15h22a7.5,7.5,0,0,0,0-15Z"/></svg>